<svg xmlns="http://www.w3.org/2000/svg" version="1.0" width="24.000000pt" height="24.000000pt" viewBox="0 0 24.000000 24.000000" preserveAspectRatio="xMidYMid meet">

<g transform="translate(0.000000,24.000000) scale(0.100000,-0.100000)" fill="#637381" stroke="none">
<path d="M75 185 c-33 -13 -63 -21 -67 -18 -5 2 -8 -11 -8 -30 0 -21 6 -37 14 -40 8 -3 17 -20 21 -37 5 -25 11 -31 28 -28 16 2 21 9 19 26 -2 20 1 22 20 16 13 -3 24 -11 26 -15 2 -5 15 -9 28 -9 23 0 24 2 24 80 0 77 -1 80 -22 79 -13 -1 -50 -12 -83 -24z m85 -50 c0 -36 -3 -65 -7 -65 -5 0 -7 28 -6 62 2 73 2 68 8 68 3 0 5 -29 5 -65z m-30 -4 l0 -50 -42 13 c-35 9 -44 17 -46 37 -3 21 3 28 30 36 56 18 58 17 58 -36z m-113 -13 c-3 -7 -5 -2 -5 12 0 14 2 19 5 13 2 -7 2 -19 0 -25z m51 -51 c5 -24 -15 -21 -21 4 -3 13 -1 19 6 16 7 -2 13 -11 15 -20z" fill="#637381"/>
<path d="M200 180 c-8 -5 -12 -12 -9 -15 8 -8 39 5 39 16 0 11 -11 11 -30 -1z" fill="#637381"/>
<path d="M200 130 c0 -5 6 -10 14 -10 8 0 18 5 21 10 3 6 -3 10 -14 10 -12 0 -21 -4 -21 -10z" fill="#637381"/>
<path d="M190 100 c0 -12 28 -25 36 -17 3 3 -4 10 -15 17 -15 7 -21 7 -21 0z" fill="#637381"/>
</g>
</svg>